<?xml version="1.0" encoding="UTF-8"?>
<svg width="22px" height="22px" viewBox="0 0 22 22" version="1.1" xmlns="http://www.w3.org/2000/svg" xmlns:xlink="http://www.w3.org/1999/xlink">
    <!-- Generator: Sketch 51.3 (57544) - http://www.bohemiancoding.com/sketch -->
    <title>account</title>
    <desc>Created with Sketch.</desc>
    <defs></defs>
    <g id="Page-1" stroke="none" stroke-width="1" fill="none" fill-rule="evenodd">
        <g id="Settings" transform="translate(-342.000000, -188.000000)" fill="#838B99" fill-rule="nonzero">
            <g id="Settings-Field" transform="translate(318.000000, 152.000000)">
                <g id="Group-12">
                    <g id="Settings-Menu" transform="translate(0.000000, 19.000000)">
                        <g id="Rectangle">
                            <g id="account" transform="translate(24.000000, 17.000000)">
                                <path d="M22,11 C22,4.92042543 17.080246,0 11,0 C4.92042543,0 0,4.91975404 0,11 C0,17.0256958 4.87863157,22 11,22 C17.0961914,22 22,17.0533905 22,11 Z M11,1.2890625 C16.3546448,1.2890625 20.7109375,5.6453552 20.7109375,11 C20.7109375,12.9587708 20.1283417,14.841507 19.0479126,16.4362183 C14.7094116,11.7694092 7.29847718,11.7610169 2.9520874,16.4362183 C1.87165834,14.841507 1.2890625,12.9587708 1.2890625,11 C1.2890625,5.6453552 5.6453552,1.2890625 11,1.2890625 Z M3.75607298,17.4667969 C7.61352539,13.1400452 14.3874817,13.1410522 18.2437591,17.4667969 C14.3733825,21.7969055 7.62812806,21.7982483 3.75607298,17.4667969 Z" id="Shape"></path>
                                <path d="M10.9335938,11 C13.1025336,11 14.8671875,9.38905552 14.8671875,7.40904018 L14.8671875,6.21205357 C14.8671875,4.23203823 13.1025336,2.62109375 10.9335938,2.62109375 C8.76465386,2.62109375 7,4.23203823 7,6.21205357 L7,7.40904018 C7,9.38905552 8.76465386,11 10.9335938,11 Z M8.31119792,6.21205357 C8.31119792,4.89193942 9.48751998,3.81808036 10.9335938,3.81808036 C12.3796675,3.81808036 13.5559896,4.89193942 13.5559896,6.21205357 L13.5559896,7.40904018 C13.5559896,8.72915433 12.3796675,9.80301339 10.9335938,9.80301339 C9.48751998,9.80301339 8.31119792,8.72915433 8.31119792,7.40904018 L8.31119792,6.21205357 Z" id="Shape"></path>
                            </g>
                        </g>
                    </g>
                </g>
            </g>
        </g>
    </g>
</svg>