<?xml version="1.0" encoding="UTF-8"?>
<svg width="22px" height="22px" viewBox="0 0 22 22" version="1.1" xmlns="http://www.w3.org/2000/svg" xmlns:xlink="http://www.w3.org/1999/xlink">
    <!-- Generator: Sketch 51.3 (57544) - http://www.bohemiancoding.com/sketch -->
    <title>account</title>
    <desc>Created with Sketch.</desc>
    <defs></defs>
    <g id="Page-1" stroke="none" stroke-width="1" fill="none" fill-rule="evenodd">
        <g id="Settings" transform="translate(-342.000000, -188.000000)" fill="#2460C8" fill-rule="nonzero">
            <g id="Settings-Field" transform="translate(318.000000, 152.000000)">
                <g id="Group-12">
                    <g id="Settings-Menu" transform="translate(0.000000, 19.000000)">
                        <g id="Rectangle">
                            <g id="account" transform="translate(24.000000, 17.000000)">
                                <path d="M22,11 C22,4.92042543 17.080246,0 11,0 C4.92042543,0 0,4.91975404 0,11 C0,17.0256958 4.87863157,22 11,22 C17.0961914,22 22,17.0533905 22,11 Z M11,1.2890625 C16.3546448,1.2890625 20.7109375,5.6453552 20.7109375,11 C20.7109375,12.9587708 20.1283417,14.841507 19.0479126,16.4362183 C14.7094116,11.7694092 7.29847718,11.7610169 2.9520874,16.4362183 C1.87165834,14.841507 1.2890625,12.9587708 1.2890625,11 C1.2890625,5.6453552 5.6453552,1.2890625 11,1.2890625 Z M3.75607298,17.4667969 C7.61352539,13.1400452 14.3874817,13.1410522 18.2437591,17.4667969 C14.3733825,21.7969055 7.62812806,21.7982483 3.75607298,17.4667969 Z" id="Shape"></path>
                                <path d="M11,11.6445312 C13.1323242,11.6445312 14.8671875,9.90966797 14.8671875,7.77734375 L14.8671875,6.48828125 C14.8671875,4.35595703 13.1323242,2.62109375 11,2.62109375 C8.86767578,2.62109375 7.1328125,4.35595703 7.1328125,6.48828125 L7.1328125,7.77734375 C7.1328125,9.90966797 8.86767578,11.6445312 11,11.6445312 Z M8.421875,6.48828125 C8.421875,5.06661985 9.5783386,3.91015625 11,3.91015625 C12.4216614,3.91015625 13.578125,5.06661985 13.578125,6.48828125 L13.578125,7.77734375 C13.578125,9.19900515 12.4216614,10.3554688 11,10.3554688 C9.5783386,10.3554688 8.421875,9.19900515 8.421875,7.77734375 L8.421875,6.48828125 Z" id="Shape"></path>
                            </g>
                        </g>
                    </g>
                </g>
            </g>
        </g>
    </g>
</svg>