<?xml version="1.0" encoding="UTF-8"?>
<svg width="22px" height="22px" viewBox="0 0 22 22" version="1.1" xmlns="http://www.w3.org/2000/svg" xmlns:xlink="http://www.w3.org/1999/xlink">
    <!-- Generator: Sketch 51.3 (57544) - http://www.bohemiancoding.com/sketch -->
    <title>Add Node</title>
    <desc>Created with Sketch.</desc>
    <defs></defs>
    <g id="Add-Node" stroke="none" stroke-width="1" fill="none" fill-rule="evenodd">
        <g id="plus-2" fill="#2460C8" fill-rule="nonzero">
            <path d="M15.2395977,11 C15.2395977,11.4746328 14.8548555,11.859375 14.3802227,11.859375 L11.859375,11.859375 L11.859375,14.3802227 C11.859375,14.8548555 11.4746328,15.2395977 11,15.2395977 C10.5253672,15.2395977 10.140625,14.8548555 10.140625,14.3802227 L10.140625,11.859375 L7.61977734,11.859375 C7.14514453,11.859375 6.76040234,11.4746328 6.76040234,11 C6.76040234,10.5253672 7.14514453,10.140625 7.61977734,10.140625 L10.140625,10.140625 L10.140625,7.61977734 C10.140625,7.14514453 10.5253672,6.76040234 11,6.76040234 C11.4746328,6.76040234 11.859375,7.14514453 11.859375,7.61977734 L11.859375,10.140625 L14.3802227,10.140625 C14.8548125,10.140625 15.2395977,10.5253672 15.2395977,11 Z M22,6.37535938 L22,15.6246406 C22,17.2315 21.3742461,18.7421523 20.2380664,19.878332 C20.057082,20.0060352 18.5631016,22 15.6246406,22 L6.37535937,22 C3.43724219,22 1.94480859,20.0073672 1.76193359,19.878332 C0.625753906,18.7421523 -1.22124533e-15,17.231457 -1.22124533e-15,15.6246406 L-1.22124533e-15,6.37535937 C-1.22124533e-15,4.7685 0.625753906,3.25784766 1.76193359,2.12166797 C1.94291797,1.99396484 3.43689844,-1.22124533e-15 6.37535937,-1.22124533e-15 L15.6246406,-1.22124533e-15 C18.5627578,-1.22124533e-15 20.0551914,1.99263281 20.2380664,2.12166797 C21.3742891,3.25784766 22,4.76854297 22,6.37535938 Z M20.28125,6.37535938 C20.28125,5.22762109 19.8342891,4.14858984 19.0227383,3.33703906 C18.8344492,3.20164453 17.7891914,1.71875 15.6246406,1.71875 L6.37535938,1.71875 C4.22241016,1.71875 3.15919141,3.20619922 2.97726172,3.33703906 C2.16571094,4.14858984 1.71875,5.22762109 1.71875,6.37535938 L1.71875,15.6246406 C1.71875,16.7723789 2.16571094,17.8514102 2.97726172,18.6629609 C3.16555078,18.7983555 4.21080859,20.28125 6.37535938,20.28125 L15.6246406,20.28125 C17.7775898,20.28125 18.8408086,18.7938008 19.0227383,18.6629609 C19.8342891,17.8514102 20.28125,16.7723789 20.28125,15.6246406 L20.28125,6.37535938 Z" id="Shape"></path>
        </g>
    </g>
</svg>