<?xml version="1.0" encoding="UTF-8"?>
<svg width="22px" height="16px" viewBox="0 0 22 16" version="1.1" xmlns="http://www.w3.org/2000/svg" xmlns:xlink="http://www.w3.org/1999/xlink">
    <!-- Generator: Sketch 51.3 (57544) - http://www.bohemiancoding.com/sketch -->
    <title>api</title>
    <desc>Created with Sketch.</desc>
    <defs></defs>
    <g id="Page-1" stroke="none" stroke-width="1" fill="none" fill-rule="evenodd">
        <g id="Settings" transform="translate(-342.000000, -302.000000)" fill="#2460C8" fill-rule="nonzero">
            <g id="Settings-Field" transform="translate(318.000000, 152.000000)">
                <g id="Group-12">
                    <g id="Settings-Menu" transform="translate(0.000000, 19.000000)">
                        <g id="Rectangle" transform="translate(0.000000, 111.000000)">
                            <g id="api" transform="translate(24.000000, 20.000000)">
                                <path d="M20.0664062,0.0240625 L1.93359375,0.0240625 C0.867410156,0.0240625 0,0.891472656 0,1.95765625 L0,13.7689492 C0,14.8351328 0.867410156,15.702543 1.93359375,15.702543 L20.0664062,15.702543 C21.1325898,15.702543 22,14.8351328 22,13.7689492 L22,1.95765625 C22,0.891429688 21.1325898,0.0240625 20.0664062,0.0240625 Z M20.7109375,13.7689492 C20.7109375,14.1243438 20.4218008,14.4134805 20.0664062,14.4134805 L1.93359375,14.4134805 C1.57819922,14.4134805 1.2890625,14.1243438 1.2890625,13.7689492 L1.2890625,4.51021484 L20.7109375,4.51021484 L20.7109375,13.7689492 Z M20.7109375,3.22115234 L1.2890625,3.22115234 L1.2890625,1.95765625 C1.2890625,1.60226172 1.57819922,1.313125 1.93359375,1.313125 L20.0664062,1.313125 C20.4218008,1.313125 20.7109375,1.60226172 20.7109375,1.95765625 L20.7109375,3.22115234 Z" id="Shape"></path>
                                <path d="M7.37949609,6.19884375 C6.230125,6.19884375 5.29499609,7.13397266 5.29499609,8.28334375 L5.29499609,11.0961211 C5.29499609,11.4520742 5.58357422,11.7406523 5.93952734,11.7406523 C6.29548047,11.7406523 6.58405859,11.4520742 6.58405859,11.0961211 L6.58405859,9.87430469 L8.17489062,9.87430469 L8.17489062,11.0961211 C8.17489062,11.4520742 8.46346875,11.7406523 8.81942187,11.7406523 C9.175375,11.7406523 9.46395312,11.4520742 9.46395312,11.0961211 L9.46395312,8.28334375 C9.46399609,7.13397266 8.52886719,6.19884375 7.37949609,6.19884375 Z M8.17493359,8.58528516 L6.58410156,8.58528516 L6.58410156,8.28338672 L6.58405859,8.28338672 C6.58405859,7.84476172 6.94091406,7.48794922 7.37949609,7.48794922 C7.81807812,7.48794922 8.17493359,7.84476172 8.17493359,8.28338672 L8.17493359,8.58528516 Z" id="Shape"></path>
                                <path d="M12.6867383,6.19884375 L11,6.19884375 C10.6440469,6.19884375 10.3554688,6.48742187 10.3554688,6.843375 L10.3554688,11.0961211 C10.3554688,11.4520742 10.6440469,11.7406523 11,11.7406523 C11.3559531,11.7406523 11.6445312,11.4520742 11.6445312,11.0961211 L11.6445312,9.87430469 L12.6867383,9.87430469 C13.7000703,9.87430469 14.5245117,9.04986328 14.5245117,8.03653125 C14.5245117,7.02324219 13.7000703,6.19884375 12.6867383,6.19884375 Z M12.6867383,8.58528516 L11.6445312,8.58528516 L11.6445312,7.48794922 L12.6867383,7.48794922 C12.9892812,7.48794922 13.2354492,7.73411719 13.2354492,8.03666016 C13.2354492,8.33924609 12.9892812,8.58528516 12.6867383,8.58528516 Z" id="Shape"></path>
                                <path d="M16.0604727,6.19884375 C15.7045195,6.19884375 15.4159414,6.48742187 15.4159414,6.843375 L15.4159414,11.0961211 C15.4159414,11.4520742 15.7045195,11.7406523 16.0604727,11.7406523 C16.4164258,11.7406523 16.7050039,11.4520742 16.7050039,11.0961211 L16.7050039,6.843375 C16.7050039,6.48742187 16.4164258,6.19884375 16.0604727,6.19884375 Z" id="Path"></path>
                            </g>
                        </g>
                    </g>
                </g>
            </g>
        </g>
    </g>
</svg>