<?xml version="1.0" encoding="UTF-8"?>
<svg width="18px" height="22px" viewBox="0 0 18 22" version="1.1" xmlns="http://www.w3.org/2000/svg" xmlns:xlink="http://www.w3.org/1999/xlink">
    <!-- Generator: Sketch 51.3 (57544) - http://www.bohemiancoding.com/sketch -->
    <title>Shape</title>
    <desc>Created with Sketch.</desc>
    <defs></defs>
    <g id="Page-1" stroke="none" stroke-width="1" fill="none" fill-rule="evenodd">
        <g id="CVE" transform="translate(-1316.000000, -59.000000)" fill="#2460C8" fill-rule="nonzero">
            <g id="Title" transform="translate(278.000000, 39.000000)">
                <g id="Group-29" transform="translate(815.000000, 0.000000)">
                    <g id="Group-13">
                        <g id="Group-28" transform="translate(223.000000, 20.000000)">
                            <g id="bell">
                                <path d="M17.0672305,17.5077461 C17.0025625,17.4657656 16.5158555,17.1248086 16.0285039,16.0933437 C15.1335078,14.1991953 14.9456484,11.5309219 14.9456484,9.62607422 C14.9456484,9.61778125 14.9454766,9.60957422 14.9451758,9.60132422 C14.9354219,7.08382812 13.4279492,4.91364844 11.2707461,3.93993359 L11.2707461,2.45076562 C11.2707461,1.09939844 10.1731523,-2.44249065e-15 8.82401953,-2.44249065e-15 L8.62125,-2.44249065e-15 C7.27211719,-2.44249065e-15 6.17452344,1.09939844 6.17452344,2.45076562 L6.17452344,3.93984766 C4.01010156,4.91669922 2.49962109,7.09796484 2.49962109,9.62607422 C2.49962109,11.5309219 2.31176172,14.1991523 1.41676562,16.0933437 C0.929457031,17.1247656 0.44275,17.4657227 0.378039062,17.5077461 C0.10553125,17.6338594 -0.0288320313,17.9251875 0.033859375,18.2204258 C0.0971523437,18.5185859 0.375847656,18.7241484 0.680195312,18.7241484 L5.40448047,18.7241484 C5.43086328,20.5348945 6.90873047,22 8.72265625,22 C10.536582,22 12.0144492,20.5348945 12.040832,18.7241484 L16.7651172,18.7241484 C17.0694219,18.7241484 17.3481602,18.5185859 17.4114531,18.2204258 C17.4740586,17.9251875 17.3397383,17.6338164 17.0672305,17.5077461 Z M7.46362891,2.45076562 C7.46362891,1.81134766 7.98294922,1.29116797 8.62129297,1.29116797 L8.8240625,1.29116797 C9.46240625,1.29116797 9.98172656,1.81134766 9.98172656,2.45076562 L9.98172656,3.52141797 C9.57489844,3.43732812 9.15376172,3.39307031 8.72248438,3.39307031 C8.29133594,3.39307031 7.87032813,3.43728516 7.46367188,3.52128906 L7.46367188,2.45076562 L7.46362891,2.45076562 Z M8.72265625,20.708832 C7.61951953,20.708832 6.71971094,19.8229453 6.69354297,18.7241914 L10.7517266,18.7241914 C10.7256016,19.8229023 9.82579297,20.708832 8.72265625,20.708832 Z M11.3179687,17.4329375 C11.3178398,17.4329375 2.14908203,17.4329375 2.14908203,17.4329375 C2.26058594,17.2591719 2.37406641,17.062418 2.48685937,16.8400547 C3.35070312,15.1366445 3.78872656,12.7095117 3.78872656,9.62607422 C3.78872656,6.901125 6.00200391,4.68423828 8.72244141,4.68423828 C11.4428789,4.68423828 13.6561563,6.901125 13.6561563,9.62822266 C13.6561563,9.63617187 13.6562852,9.64407812 13.6565859,9.65198437 C13.6590352,12.7230469 14.0970156,15.141457 14.9584531,16.8400547 C15.0712461,17.0624609 15.1847695,17.2591719 15.2962305,17.4329375 L11.3179687,17.4329375 Z" id="Shape"></path>
                            </g>
                        </g>
                    </g>
                </g>
            </g>
        </g>
    </g>
</svg>