<?xml version="1.0" encoding="UTF-8"?>
<svg width="30px" height="30px" viewBox="0 0 30 30" version="1.1" xmlns="http://www.w3.org/2000/svg" xmlns:xlink="http://www.w3.org/1999/xlink">
    <!-- Generator: Sketch 51.3 (57544) - http://www.bohemiancoding.com/sketch -->
    <title>Group 8</title>
    <desc>Created with Sketch.</desc>
    <defs></defs>
    <g id="Page-1" stroke="none" stroke-width="1" fill="none" fill-rule="evenodd">
        <g id="Recommended-Actions" transform="translate(-1204.000000, -152.000000)">
            <g id="Opened-Action" transform="translate(323.000000, 87.000000)">
                <g id="Group-3" transform="translate(881.000000, 65.000000)">
                    <g id="Group-7">
                        <g id="Group-8">
                            <circle id="Oval" fill="#2460C8" cx="15" cy="15" r="15"></circle>
                            <path d="M16.9007813,15.5163867 L21.7460742,10.6710938 C22.1283984,10.2887695 22.1283984,9.66902344 21.7460742,9.28669922 C21.3638086,8.90443359 20.7440039,8.90443359 20.3616797,9.28669922 L15.5163867,14.1320508 L10.6710938,9.28675781 C10.2887695,8.90449219 9.66902344,8.90449219 9.28669922,9.28675781 C8.90443359,9.66902344 8.90443359,10.2888281 9.28669922,10.6711523 L14.1319922,15.5164453 L9.28669922,20.3617383 C8.90443359,20.7439453 8.90443359,21.3638086 9.28669922,21.7461328 C9.66902344,22.1283984 10.2887695,22.1283984 10.6710938,21.7461328 L15.5163867,16.9007813 L20.3616797,21.7460742 C20.7440039,22.1283398 21.36375,22.1283398 21.7460742,21.7460742 C22.1283984,21.3638086 22.1283984,20.7440039 21.7460742,20.3616797 L16.9007813,15.5163867 Z" id="Path" fill="#FFFFFF" fill-rule="nonzero"></path>
                        </g>
                    </g>
                </g>
            </g>
        </g>
    </g>
</svg>