<?xml version="1.0" encoding="UTF-8"?>
<svg width="40px" height="40px" viewBox="0 0 40 40" version="1.1" xmlns="http://www.w3.org/2000/svg" xmlns:xlink="http://www.w3.org/1999/xlink">
    <!-- Generator: Sketch 51.3 (57544) - http://www.bohemiancoding.com/sketch -->
    <title>Group 8</title>
    <desc>Created with Sketch.</desc>
    <defs></defs>
    <g id="Page-1" stroke="none" stroke-width="1" fill="none" fill-rule="evenodd">
        <g id="Recommended-Actions" transform="translate(-1140.000000, -180.000000)">
            <g id="Opened-Action" transform="translate(317.000000, 153.000000)">
                <g id="Ignore-Snooze-Resolve" transform="translate(817.000000, 27.000000)">
                    <g id="Group-7" transform="translate(6.000000, 0.000000)">
                        <g id="Group-8">
                            <circle id="Oval" fill="#2460C8" cx="20" cy="20" r="20"></circle>
                            <g id="multiply" transform="translate(5.000000, 5.000000)" fill-rule="nonzero">
                                <path d="M28.9041211,9.35701172 C28.1730469,7.54775391 27.0741797,5.85146484 25.6112109,4.38873047 C24.148418,2.92570313 22.4520117,1.82683594 20.6427539,1.09576172 C18.8332617,0.364453125 16.9108008,0 14.9892187,0 C13.0704492,0 11.1516211,0.366152344 9.34599609,1.09828125 C7.54054687,1.83017578 5.84835937,2.92898437 4.38878906,4.38878906 C2.92892578,5.84841797 1.83011719,7.54066406 1.09828125,9.34623047 C0.366152344,11.1517969 0,13.070625 0,14.9895703 C0,16.9110937 0.364570312,18.8334375 1.09576172,20.6429883 C1.82683594,22.4521875 2.92570312,24.1485352 4.38873047,25.6112695 C5.85146484,27.0741797 7.54775391,28.1731055 9.35701172,28.9041797 C11.1665039,29.6354297 13.0888477,29.9999414 15.0103711,30.0000586 C16.9291992,30.0000586 18.8480859,29.6339063 20.6538281,28.9018359 C22.4593359,28.17 24.151582,27.07125 25.6112695,25.6113281 C27.0711328,24.1516406 28.1699414,22.4593945 28.9017773,20.6538281 C29.6338477,18.8481445 30,16.9293164 30.0000586,15.0103711 C30,13.0888477 29.6354297,11.1665039 28.9041211,9.35701172 Z M27.0475195,19.9019531 C26.4134766,21.4654102 25.4644336,22.9282031 24.1964062,24.1964062 C22.9282617,25.464375 21.4654687,26.413418 19.9020117,27.0475195 C18.3387891,27.6813867 16.6747852,27.9991406 15.0103711,27.9991406 C13.3417969,27.9991406 11.6736328,27.6823828 10.1067773,27.0491016 C8.53974609,26.4155273 7.07396484,25.4666016 5.80359375,24.1964648 C4.53339844,22.9259766 3.58441406,21.4602539 2.95095703,19.8931641 C2.31767578,18.3263086 2.00091797,16.6580859 2.00097656,14.9895117 C2.00091797,13.3251562 2.31873047,11.6612695 2.95253906,10.0979883 C3.58658203,8.53453125 4.535625,7.07173828 5.80365234,5.80359375 C7.07179687,4.535625 8.53453125,3.58658203 10.0979297,2.95248047 C11.6610938,2.31861328 13.3249805,2.00080078 14.9893359,2.00080078 C16.6579688,2.00080078 18.32625,2.3175 19.8931055,2.95078125 C21.4601953,3.58423828 22.9260352,4.53322266 24.1965234,5.80347656 C25.4667187,7.07390625 26.4156445,8.53962891 27.0491602,10.1066602 C27.6824414,11.6735156 27.9991992,13.3416797 27.9991992,15.0102539 C27.9991406,16.6747266 27.6813867,18.3386719 27.0475195,19.9019531 Z" id="Shape" fill="#2460C8"></path>
                                <path d="M16.3843945,15.0000586 L21.2296875,10.1547656 C21.6120117,9.77244141 21.6120117,9.15269531 21.2296875,8.77037109 C20.8474219,8.38810547 20.2276172,8.38810547 19.845293,8.77037109 L15,13.6157227 L10.154707,8.77042969 C9.77238281,8.38816406 9.15263672,8.38816406 8.7703125,8.77042969 C8.38804688,9.15269531 8.38804688,9.7725 8.7703125,10.1548242 L13.6156055,15.0001172 L8.7703125,19.8454102 C8.38804688,20.2276172 8.38804688,20.8474805 8.7703125,21.2298047 C9.15263672,21.6120703 9.77238281,21.6120703 10.154707,21.2298047 L15,16.3844531 L19.845293,21.2297461 C20.2276172,21.6120117 20.8473633,21.6120117 21.2296875,21.2297461 C21.6120117,20.8474805 21.6120117,20.2276758 21.2296875,19.8453516 L16.3843945,15.0000586 Z" id="Path" fill="#FFFFFF"></path>
                            </g>
                        </g>
                    </g>
                </g>
            </g>
        </g>
    </g>
</svg>