<?xml version="1.0" encoding="UTF-8"?>
<svg width="40px" height="40px" viewBox="0 0 40 40" version="1.1" xmlns="http://www.w3.org/2000/svg" xmlns:xlink="http://www.w3.org/1999/xlink">
    <!-- Generator: Sketch 51.3 (57544) - http://www.bohemiancoding.com/sketch -->
    <title>close</title>
    <desc>Created with Sketch.</desc>
    <defs></defs>
    <g id="Page-1" stroke="none" stroke-width="1" fill="none" fill-rule="evenodd">
        <g id="Recommended-Actions" transform="translate(-1051.000000, -282.000000)" fill="#2460C8" fill-rule="nonzero">
            <g id="All-Affected-Nodes" transform="translate(298.000000, 245.000000)">
                <g id="close" transform="translate(753.000000, 37.000000)">
                    <path d="M20,0 C8.97190476,0 0,8.97190476 0,20 C0,31.0280952 8.97190476,40 20,40 C31.0280952,40 40,31.0280952 40,20 C40,8.97190476 31.0280952,0 20,0 Z M20,37.1428571 C10.5474603,37.1428571 2.85714286,29.4525397 2.85714286,20 C2.85714286,10.5474603 10.5474603,2.85714286 20,2.85714286 C29.4525397,2.85714286 37.1428571,10.5474603 37.1428571,20 C37.1428571,29.4525397 29.4525397,37.1428571 20,37.1428571 Z" id="Shape"></path>
                    <path d="M26.1288889,13.8711111 C25.5709524,13.3131746 24.6665079,13.3131746 24.1085714,13.8711111 L20,17.9796825 L15.8912698,13.8709524 C15.3333333,13.3130159 14.4288889,13.3130159 13.8709524,13.8709524 C13.3130159,14.4288889 13.3130159,15.3333333 13.8709524,15.8912698 L17.9796825,20 L13.8709524,24.1087302 C13.3130159,24.6666667 13.3130159,25.5711111 13.8709524,26.1290476 C14.1498413,26.4079365 14.5155556,26.5474603 14.8811111,26.5474603 C15.2466667,26.5474603 15.6122222,26.4079365 15.8912698,26.1290476 L20,22.0203175 L24.1087302,26.1290476 C24.387619,26.4079365 24.7533333,26.5474603 25.1188889,26.5474603 C25.4844444,26.5474603 25.85,26.4079365 26.1290476,26.1290476 C26.6869841,25.5711111 26.6869841,24.6666667 26.1290476,24.1087302 L22.0203175,20 L26.1290476,15.8912698 C26.6868254,15.3334921 26.6868254,14.4288889 26.1288889,13.8711111 Z" id="Path"></path>
                </g>
            </g>
        </g>
    </g>
</svg>