<?xml version="1.0" encoding="UTF-8"?>
<svg width="22px" height="22px" viewBox="0 0 22 22" version="1.1" xmlns="http://www.w3.org/2000/svg" xmlns:xlink="http://www.w3.org/1999/xlink">
    <!-- Generator: Sketch 51.3 (57544) - http://www.bohemiancoding.com/sketch -->
    <title>Dashbaord</title>
    <desc>Created with Sketch.</desc>
    <defs></defs>
    <g id="Dashbaord" stroke="none" stroke-width="1" fill="none" fill-rule="evenodd">
        <g id="speedometer-5" transform="translate(-0.000000, 1.000000)" fill="#636D7F" fill-rule="nonzero">
            <path d="M22.2488032,11.1193092 C22.2488032,13.5599014 21.4720506,15.8765798 20.002569,17.8193101 C19.7126447,18.2027638 19.1674241,18.2771121 18.7851586,17.9880366 C18.4023838,17.6984517 18.3268474,17.1534009 18.6162624,16.7706261 C19.8555699,15.1324181 20.5106155,13.1781451 20.5106155,11.1193092 C20.5106155,5.9315657 16.3092595,1.73818775 11.1244016,1.73818775 C5.93597905,1.73818775 1.73818775,5.93479086 1.73818775,11.1193092 C1.73818775,13.1781451 2.39323332,15.1324181 3.63237107,16.7706261 C3.92195585,17.1534009 3.84641938,17.6984517 3.46364462,17.9880366 C3.08070014,18.2776213 2.53581904,18.2020849 2.24606448,17.8193101 C0.776752651,15.8765798 -2.47011336e-15,13.5599014 -2.47011336e-15,11.1193092 C-2.47011336e-15,4.97047007 4.97895734,1.23505668e-15 11.1244016,1.23505668e-15 C17.2732408,1.23505668e-15 22.2488032,4.97386501 22.2488032,11.1193092 Z M16.6310958,5.88522535 C16.9704159,6.22454542 16.9704159,6.77485835 16.6310958,7.11417841 L13.7982232,9.947051 C14.0314527,10.3770148 14.1641932,10.869275 14.1641932,11.3917498 C14.1641932,13.0679807 12.8004627,14.4315415 11.1244016,14.4315415 C9.44817073,14.4315415 8.08460998,13.0679807 8.08460998,11.3917498 C8.08460998,9.71568869 9.44817073,8.35195821 11.1244016,8.35195821 C11.6470462,8.35195821 12.1391366,8.48469869 12.5691004,8.71792821 L15.401973,5.88505562 C15.7414628,5.54573556 16.291606,5.54573556 16.6310958,5.88522535 Z M12.4260055,11.3919196 C12.4260055,10.6742381 11.842083,10.0903157 11.1244016,10.0903157 C10.4067202,10.0903157 9.82279773,10.6742381 9.82279773,11.3919196 C9.82279773,12.109601 10.4067202,12.6935234 11.1244016,12.6935234 C11.842083,12.6935234 12.4260055,12.109601 12.4260055,11.3919196 Z" id="Shape"></path>
        </g>
    </g>
</svg>