<?xml version="1.0" encoding="UTF-8"?>
<svg width="22px" height="22px" viewBox="0 0 22 22" version="1.1" xmlns="http://www.w3.org/2000/svg" xmlns:xlink="http://www.w3.org/1999/xlink">
    <!-- Generator: Sketch 51.3 (57544) - http://www.bohemiancoding.com/sketch -->
    <title>github</title>
    <desc>Created with Sketch.</desc>
    <defs></defs>
    <g id="Page-1" stroke="none" stroke-width="1" fill="none" fill-rule="evenodd">
        <g id="Settings" transform="translate(-342.000000, -355.000000)" fill="#2460C8" fill-rule="nonzero">
            <g id="Settings-Field" transform="translate(318.000000, 152.000000)">
                <g id="Group-12">
                    <g id="Settings-Menu" transform="translate(0.000000, 19.000000)">
                        <g id="Rectangle" transform="translate(0.000000, 167.000000)">
                            <g id="github" transform="translate(24.000000, 17.000000)">
                                <path d="M11,0 C4.95433043,0 0,4.99729918 0,11.0429688 C0,17.0535583 4.90917969,22 11,22 C17.0832672,22 22,17.0609436 22,11.0429688 C22,4.99729918 17.0456696,0 11,0 Z M12.9335938,20.5175781 C12.3149109,20.6464844 11.6574554,20.7109375 11,20.7109375 C10.3425446,20.7109375 9.68508913,20.6464844 9.06640625,20.5175781 L9.06640625,17.5012054 C9.06640625,16.7792969 9.25976562,16.5214844 9.51757812,16.1733704 C9.64883425,16.0233154 9.72805788,15.8887024 10.3166962,15.0004577 L9.32421875,14.8457031 C6.77177428,14.4719086 5.76637269,13.1440735 5.36672976,12.1128235 C4.85110476,10.7336273 5.12184144,9.00614928 6.05003356,7.91061399 C6.19186399,7.74293519 6.30784606,7.45927428 6.20478822,7.16285707 C6.01126101,6.56985476 6.03710938,5.62890625 6.16601562,5.26786803 C6.8494873,5.36555482 7.55226136,5.85516357 8.13838197,6.20898438 C8.40844727,6.36659242 8.55010986,6.32496644 8.6796875,6.33789063 C9.1506653,6.23986816 9.88533021,6.00270082 11.0129242,6.00270082 C11.7089844,6.00270082 12.4438171,6.10575866 13.1657257,6.31204226 C13.2947998,6.309021 13.5022583,6.4187927 13.8617859,6.20898438 C14.4744263,5.83569336 15.1533661,5.36286927 15.8339844,5.26786803 C15.9628906,5.62890625 15.988739,6.56985476 15.7953796,7.16285707 C15.6921539,7.45927428 15.808136,7.74293519 15.9501343,7.91061399 C16.8781586,9.00631712 17.1488952,10.7336273 16.6332702,12.1128235 C16.2336273,13.1440735 15.2282257,14.4719086 12.6757812,14.8457031 L11.6833038,15.0004577 C12.291748,15.9185791 12.3558655,16.0286865 12.4825897,16.1733704 C12.7402344,16.5214844 12.9335938,16.7792969 12.9335938,17.5012054 L12.9335938,20.5175781 Z M14.2226563,20.1437836 L14.2226563,17.5012054 C14.2226563,16.7663727 14.0679016,16.2765961 13.861618,15.9155579 C15.8210602,15.3871765 17.2133484,14.2268524 17.8320312,12.5639954 C18.4894867,10.8110046 18.1930695,8.72265625 17.0971985,7.27883913 C17.2907257,6.41526793 17.2907257,5.03590394 16.8266296,4.39137269 C16.6203461,4.10787962 16.3366852,3.953125 15.9758148,3.953125 C15.9628906,3.953125 15.9628906,3.953125 15.9628906,3.953125 C14.9633636,4.00717161 14.1766663,4.51054381 13.3332367,5.02297976 C12.5597992,4.81669616 11.7734375,4.71363832 10.9870758,4.71363832 C10.1879577,4.71363832 9.38867188,4.82962038 8.67985534,5.02297976 C7.79194642,4.48754883 7.01280211,4.00582884 5.98558043,3.953125 C5.66331481,3.953125 5.37965394,4.10787962 5.17337038,4.39137269 C4.70944212,5.03590394 4.70944212,6.41526793 4.90280149,7.27883913 C3.80693053,8.72265625 3.51051332,10.823761 4.16796875,12.5639954 C4.78665163,14.2268524 6.17893981,15.3871765 8.13838197,15.9155579 C7.97842409,16.1953583 7.85186768,16.5563965 7.80201722,17.0449982 C7.40623473,17.1814575 7.06298828,17.2259369 6.74374388,17.1321106 C6.40704346,17.0325775 6.14469909,16.8078308 5.91676332,16.424469 C5.40483092,15.5644226 4.53286745,14.86232 3.54005433,14.9536286 L3.65335085,16.2376556 C4.11308288,16.1955261 4.57063295,16.6819458 4.80830384,17.0829315 C5.20039369,17.7432404 5.72860716,18.1762848 6.37867738,18.3683014 C6.86123659,18.5104675 7.30233763,18.5071106 7.77734375,18.4057312 L7.77734375,20.1437836 C4.02613832,18.8288727 1.2890625,15.2453461 1.2890625,11.0429687 C1.2890625,5.70628356 5.66331481,1.2890625 11,1.2890625 C16.3366852,1.2890625 20.7109375,5.70628356 20.7109375,11.0429687 C20.7109375,15.2453461 17.9738617,18.8288727 14.2226563,20.1437836 Z" id="Shape"></path>
                            </g>
                        </g>
                    </g>
                </g>
            </g>
        </g>
    </g>
</svg>