<?xml version="1.0" encoding="UTF-8"?>
<svg width="21px" height="22px" viewBox="0 0 21 22" version="1.1" xmlns="http://www.w3.org/2000/svg" xmlns:xlink="http://www.w3.org/1999/xlink">
    <!-- Generator: Sketch 51.3 (57544) - http://www.bohemiancoding.com/sketch -->
    <title>logout-3</title>
    <desc>Created with Sketch.</desc>
    <defs></defs>
    <g id="Page-1" stroke="none" stroke-width="1" fill="none" fill-rule="evenodd">
        <g id="Recommended-Actions" transform="translate(-1366.000000, -58.000000)" fill="#2460C8" fill-rule="nonzero">
            <g id="Title" transform="translate(278.000000, 39.000000)">
                <g id="Group-29" transform="translate(815.000000, 0.000000)">
                    <g id="Group-13">
                        <g id="logout-3" transform="translate(273.000000, 19.000000)">
                            <path d="M9.81698729,20.7042373 L4.08859746,20.7042373 C2.5318178,20.7042373 1.2686822,19.4364407 1.2686822,17.884322 L1.2686822,4.07838983 C1.2686822,2.52161017 2.53647881,1.25847458 4.08859746,1.25847458 L9.91020763,1.25847458 C10.2597839,1.25847458 10.5394449,0.978813559 10.5394449,0.629237288 C10.5394449,0.279661017 10.2597839,0 9.91020763,0 L4.08859746,0 C1.83732627,0 0.0102076271,1.83177966 0.0102076271,4.07838983 L0.0102076271,17.884322 C0.0102076271,20.1355932 1.84198729,21.9627119 4.08859746,21.9627119 L9.81698729,21.9627119 C10.1665636,21.9627119 10.4462246,21.6830508 10.4462246,21.3334746 C10.4462246,20.9838983 10.1619025,20.7042373 9.81698729,20.7042373 Z" id="Path"></path>
                            <path d="M20.183089,10.5385593 L16.1839364,6.53940678 C15.9369025,6.29237288 15.5407161,6.29237288 15.2936822,6.53940678 C15.0466483,6.78644068 15.0466483,7.18262712 15.2936822,7.42966102 L18.2208008,10.3567797 L5.45427542,10.3567797 C5.10469915,10.3567797 4.82503814,10.6364407 4.82503814,10.9860169 C4.82503814,11.3355932 5.10469915,11.6152542 5.45427542,11.6152542 L18.2208008,11.6152542 L15.2936822,14.5423729 C15.0466483,14.7894068 15.0466483,15.1855932 15.2936822,15.4326271 C15.4148686,15.5538136 15.5780042,15.6190678 15.7364788,15.6190678 C15.8949534,15.6190678 16.058089,15.5584746 16.1792754,15.4326271 L20.178428,11.4334746 C20.4301229,11.1817797 20.4301229,10.7809322 20.183089,10.5385593 Z" id="Path"></path>
                        </g>
                    </g>
                </g>
            </g>
        </g>
    </g>
</svg>