<?xml version="1.0" encoding="UTF-8"?>
<svg width="22px" height="22px" viewBox="0 0 22 22" version="1.1" xmlns="http://www.w3.org/2000/svg" xmlns:xlink="http://www.w3.org/1999/xlink">
    <!-- Generator: Sketch 51.3 (57544) - http://www.bohemiancoding.com/sketch -->
    <title>Nodes</title>
    <desc>Created with Sketch.</desc>
    <defs></defs>
    <g id="Nodes" stroke="none" stroke-width="1" fill="none" fill-rule="evenodd">
        <g id="database-6" transform="translate(0.000000, 1.000000)" fill="#636D7F" fill-rule="nonzero">
            <path d="M21.140625,7.88860905e-31 L0.859375,7.88860905e-31 C0.38470459,7.88860905e-31 0,0.38470459 0,0.859375 L0,14.3802643 C0,14.8549347 0.38470459,15.2396393 0.859375,15.2396393 L10.140625,15.2396393 L10.140625,17.0505371 C9.42509459,17.3075104 8.85693359,17.8756714 8.59996032,18.5912018 L4.23963929,18.5912018 C3.76496888,18.5912018 3.38026429,18.9759064 3.38026429,19.4505768 C3.38026429,19.9252472 3.76496888,20.3099518 4.23963929,20.3099518 L8.59996032,20.3099518 C8.95344545,21.2940368 9.89573668,22 11,22 C12.1042633,22 13.0465546,21.2940368 13.4000397,20.3099518 L17.7603607,20.3099518 C18.2350311,20.3099518 18.6197357,19.9252472 18.6197357,19.4505768 C18.6197357,18.9759064 18.2350311,18.5912018 17.7603607,18.5912018 L13.4000397,18.5912018 C13.1430664,17.8756714 12.5749054,17.3075104 11.859375,17.0505371 L11.859375,15.2396393 L21.140625,15.2396393 C21.6152954,15.2396393 22,14.8549347 22,14.3802643 L22,0.859375 C22,0.38470459 21.6152954,-2.44249065e-15 21.140625,7.88860905e-31 Z M11,20.28125 C10.5419464,20.28125 10.1693268,19.9086304 10.1693268,19.4505768 C10.1693268,18.9925232 10.5419464,18.6199036 11,18.6199036 C11.4580536,18.6199036 11.8306732,18.9925232 11.8306732,19.4505768 C11.8306732,19.9086304 11.4580536,20.28125 11,20.28125 Z M20.28125,1.71875 L20.28125,6.76036071 L1.71875,6.76036071 L1.71875,1.71875 L20.28125,1.71875 Z M1.71875,13.5208893 L1.71875,8.47911071 L20.28125,8.47911071 L20.28125,13.5207214 L1.71875,13.5207214 L1.71875,13.5208893 Z M3.38026429,4.23963929 C3.38026429,3.76496888 3.76496888,3.38026429 4.23963929,3.38026429 L5.9296875,3.38026429 C6.40435791,3.38026429 6.7890625,3.76496888 6.7890625,4.23963929 C6.7890625,4.7143097 6.40435791,5.09901429 5.9296875,5.09901429 L4.23963929,5.09901429 C3.76496888,5.09901429 3.38026429,4.71414187 3.38026429,4.23963929 Z M6.7890625,11 C6.7890625,11.4746704 6.40435791,11.859375 5.9296875,11.859375 L4.23963929,11.859375 C3.76496888,11.859375 3.38026429,11.4746704 3.38026429,11 C3.38026429,10.5253296 3.76496888,10.140625 4.23963929,10.140625 L5.9296875,10.140625 C6.40435791,10.140625 6.7890625,10.5253296 6.7890625,11 Z" id="Shape"></path>
        </g>
    </g>
</svg>