<?xml version="1.0" encoding="UTF-8"?>
<svg width="23px" height="25px" viewBox="0 0 23 25" version="1.1" xmlns="http://www.w3.org/2000/svg" xmlns:xlink="http://www.w3.org/1999/xlink">
    <!-- Generator: Sketch 51.3 (57544) - http://www.bohemiancoding.com/sketch -->
    <title>paper</title>
    <desc>Created with Sketch.</desc>
    <defs></defs>
    <g id="Page-1" stroke="none" stroke-width="1" fill="none" fill-rule="evenodd">
        <g id="Add-Node" transform="translate(-1034.000000, -472.000000)" fill="#2460C8" fill-rule="nonzero">
            <g id="Add-new-node" transform="translate(296.000000, 245.000000)">
                <g id="Group-27" transform="translate(570.000000, 213.000000)">
                    <g id="paper" transform="translate(168.000000, 14.000000)">
                        <path d="M21.2038849,2.36658272e-30 L4.82084207,2.36658272e-30 C4.35888045,2.36658272e-30 3.98294058,0.375939862 3.98294058,0.837901439 L3.98294058,3.72048841 L0.862315594,3.72048841 C0.400354017,3.72048841 0.0244141556,4.09623755 0.0244141556,4.55819913 L0.0244141556,24.1621939 C0.0244141556,24.6241555 0.400354017,25.0000954 0.862315594,25.0000954 L17.2453585,25.0000954 C17.70732,25.0000954 18.0832599,24.6241555 18.0832599,24.1621939 L18.0832599,21.279607 L21.2038849,21.279607 C21.6658465,21.279607 22.0417863,20.9038578 22.0417863,20.4418962 L22.0417863,0.837901439 C22.0417863,0.375939862 21.6658465,-4.16335222e-15 21.2038849,2.36658272e-30 Z M1.48926349,23.535246 L1.48926349,5.18533775 L12.787677,5.18533775 L12.787677,8.19800642 C12.787677,8.64070376 13.1479765,9.00100328 13.5906738,9.00100328 L16.6182198,9.00100328 L16.6182198,20.5468008 L16.6182198,20.5471823 L16.6182198,20.5477545 L16.6182198,23.535246 L1.48926349,23.535246 Z M14.252717,6.21683582 L15.5768035,7.53596322 L14.252717,7.53596322 L14.252717,6.21683582 Z M20.576937,19.8147576 L18.0832599,19.8147576 L18.0832599,8.31340144 C18.0832599,8.08985938 17.9962845,7.87947801 17.8370202,7.72002305 L14.0688479,3.96558368 C13.9105374,3.80746384 13.700156,3.72048841 13.4766139,3.72048841 L5.44798069,3.72048841 L5.44798069,1.46484934 L20.5767463,1.46484934 L20.5767463,19.8147576 L20.576937,19.8147576 Z" id="Shape"></path>
                    </g>
                </g>
            </g>
        </g>
    </g>
</svg>