<?xml version="1.0" encoding="UTF-8"?>
<svg width="22px" height="22px" viewBox="0 0 22 22" version="1.1" xmlns="http://www.w3.org/2000/svg" xmlns:xlink="http://www.w3.org/1999/xlink">
    <!-- Generator: Sketch 51.3 (57544) - http://www.bohemiancoding.com/sketch -->
    <title>fingerprint-3</title>
    <desc>Created with Sketch.</desc>
    <defs></defs>
    <g id="Page-1" stroke="none" stroke-width="1" fill="none" fill-rule="evenodd">
        <g id="Settings" transform="translate(-342.000000, -244.000000)" fill="#2460C8" fill-rule="nonzero">
            <g id="Settings-Field" transform="translate(318.000000, 152.000000)">
                <g id="Group-12">
                    <g id="Settings-Menu" transform="translate(0.000000, 19.000000)">
                        <g id="Rectangle" transform="translate(0.000000, 56.000000)">
                            <g id="fingerprint-3" transform="translate(24.000000, 17.000000)">
                                <path d="M8.89712819,12.9221728 C9.10029673,12.6353176 8.99321886,12.2618472 8.65796708,12.0880091 C8.32276266,11.9142114 7.88625812,12.005767 7.68308957,12.2926221 C6.94140598,13.3398215 5.76108672,14.4102642 4.46265501,14.8232967 C4.09524672,14.9401606 3.90808539,15.2897805 4.0446677,15.6041306 C4.18129736,15.9186022 4.58990766,16.0786321 4.95731596,15.9617682 C6.57503958,15.4472592 7.98651635,14.2078377 8.89712819,12.9221728 Z" id="Path"></path>
                                <path d="M13.3845915,9.20424192 C11.9042674,7.25364034 8.77779384,7.74119795 8.02787857,10.1712332 C7.92723829,10.4973851 8.10766288,10.8440735 8.43080774,10.9456428 C8.7539935,11.0472122 9.09758539,10.8651461 9.19822567,10.5390355 C9.43884632,9.75922376 10.143819,9.23529418 10.9523764,9.23529418 C12.0077294,9.23529418 13.1001324,10.1717281 12.6758974,11.7576615 C12.1825106,13.6022813 10.6331164,16.0302547 8.72872097,17.9431646 C8.48879552,18.1841186 8.48789585,18.5757565 8.72671716,18.8178239 C8.96549757,19.0598914 9.35350041,19.0608811 9.59346676,18.8198446 C11.6393966,16.764787 13.3138856,14.1192416 13.8593715,12.0800607 C14.2272136,10.704895 13.8042054,9.75712062 13.3845915,9.20424192 Z" id="Path"></path>
                                <path d="M9.71859423,5.98313856 C10.2503631,5.866043 10.8094947,5.8363072 11.3578766,5.89577881 C11.6656696,5.92906558 11.9509109,5.76439274 11.9943981,5.52760336 C12.0378853,5.29081397 11.8234563,5.07175059 11.5153626,5.03831946 C10.8365943,4.96461509 10.116594,4.99469733 9.40832055,5.15065152 C9.10924754,5.21650333 8.93623849,5.45623743 9.02193491,5.68612695 C9.10766892,5.91613195 9.41967157,6.04899037 9.71859423,5.98313856 Z" id="Path"></path>
                                <path d="M7.26906538,9.21574101 C7.54246942,8.40416902 8.05639802,7.68407926 8.75527367,7.13338197 C9.04894716,6.90201351 9.08313434,6.49536853 8.83168108,6.22517381 C8.58027453,5.95497909 8.13831648,5.92349718 7.8447364,6.15486563 C6.94503442,6.86383149 6.28356851,7.79037904 5.93188891,8.83435028 C5.39175947,10.4377375 4.58663268,11.3905272 3.47055199,11.747179 C3.10537499,11.8638296 2.91211467,12.2309182 3.03891548,12.5669544 C3.16580971,12.9032912 3.56475356,13.0808011 3.92974375,12.9641934 C5.47391145,12.4706618 6.59741804,11.2095384 7.26906538,9.21574101 Z" id="Path"></path>
                                <path d="M11.9711149,10.7815985 C12.0753175,10.4640682 11.8887005,10.1264211 11.5543892,10.027484 C11.220078,9.92838624 10.8645708,10.1057423 10.7604105,10.4232325 C9.62031683,13.8981181 7.07697882,15.472399 6.32463037,15.8721227 C6.01900335,16.0345016 5.90985085,16.4014604 6.08081413,16.6916867 C6.25160819,16.9816721 6.63774575,17.0857488 6.94375354,16.9232494 C9.06427365,15.7966349 11.0369302,13.628932 11.9711149,10.7815985 Z" id="Path"></path>
                                <path d="M10.9907188,0 C4.91614063,0 0,4.9191049 0,10.9984948 C0,17.9461971 6.32684766,23.1102239 13.0987227,21.794392 C13.2161563,21.9188725 13.3821016,21.9969467 13.5666524,21.9969467 L20.0065078,21.9969467 C20.3621602,21.9969467 20.6504805,21.7084115 20.6504805,21.3525014 L20.6504805,16.2479434 C24.649668,8.88791303 19.2667578,0 10.9907188,0 Z M1.28798828,10.9984948 C1.28798828,5.64458919 5.64063673,1.28889048 10.9907188,1.28889048 C18.2981992,1.28889048 22.9835117,9.11130754 19.562211,15.5525373 L15.5006328,15.5525373 L15.5006328,13.0157055 C15.5006328,12.3061197 16.0774883,11.7288346 16.7865586,11.7288346 C17.4956289,11.7288346 18.0724844,12.3061197 18.0724844,13.0157055 L18.0724844,13.6406859 C18.0724844,13.996596 18.3608047,14.2851312 18.7164571,14.2851312 C19.0721094,14.2851312 19.3604297,13.996596 19.3604297,13.6406859 C19.3604297,12.9908696 19.3853946,12.6989399 19.2422227,12.243858 C19.3084375,12.0138033 19.8987852,8.75376461 17.6599844,5.82849542 C14.2955313,1.43223421 7.56903126,1.44662874 4.25571094,5.98090556 C3.48476563,7.03600309 3.10672657,8.31849122 2.79692188,8.96126068 C2.64240625,9.28185049 2.77685547,9.66706529 3.0971875,9.8217098 C3.41760547,9.97626838 3.80247657,9.8417762 3.95699219,9.52122937 C4.52460938,8.34349903 4.79948047,6.69453047 6.83250391,5.20708143 C8.05479298,4.31277294 9.50082032,3.84007377 11.0142656,3.84007377 C14.8131328,3.84007377 18.0418906,6.87938202 18.0658672,10.7821472 C17.6833594,10.5618894 17.2391914,10.4365925 16.7710899,10.4404168 C16.6294649,8.64660056 15.6829063,7.03828043 14.1630156,6.05730399 C13.864082,5.86433135 13.4655469,5.95044072 13.2727891,6.24958912 C13.0800313,6.54869455 13.1660547,6.94753045 13.4649024,7.14041714 C14.7108672,7.9445772 15.4598125,9.29512783 15.4998164,10.7863581 C14.7311055,11.2323737 14.2126016,12.0643345 14.2126016,13.0157485 L14.2126016,15.5525802 L13.5665664,15.5525802 C13.2109141,15.5525802 12.9225938,15.8411154 12.9225938,16.1970255 L12.9225938,20.5145679 C6.8631836,21.738103 1.28798828,17.0786582 1.28798828,10.9984948 Z M19.3625352,20.7080562 L14.210625,20.7080562 L14.210625,16.8413848 L19.3625352,16.8413848 L19.3625352,20.7080562 Z" id="Shape"></path>
                                <path d="M15.7499875,19 L17.2500125,19 C17.6642146,19 18,18.7761368 18,18.5 C18,18.2238632 17.6642146,18 17.2500125,18 L15.7499875,18 C15.3357854,18 15,18.2238632 15,18.5 C15,18.7761368 15.3357854,19 15.7499875,19 Z" id="Path"></path>
                            </g>
                        </g>
                    </g>
                </g>
            </g>
        </g>
    </g>
</svg>