<?xml version="1.0" encoding="UTF-8"?>
<svg width="22px" height="22px" viewBox="0 0 22 22" version="1.1" xmlns="http://www.w3.org/2000/svg" xmlns:xlink="http://www.w3.org/1999/xlink">
    <!-- Generator: Sketch 51.3 (57544) - http://www.bohemiancoding.com/sketch -->
    <title>salary</title>
    <desc>Created with Sketch.</desc>
    <defs></defs>
    <g id="Page-1" stroke="none" stroke-width="1" fill="none" fill-rule="evenodd">
        <g id="Settings" transform="translate(-342.000000, -466.000000)" fill="#838B99" fill-rule="nonzero">
            <g id="Settings-Field" transform="translate(318.000000, 152.000000)">
                <g id="Group-12">
                    <g id="Settings-Menu" transform="translate(0.000000, 19.000000)">
                        <g id="Rectangle" transform="translate(0.000000, 278.000000)">
                            <g id="salary" transform="translate(24.000000, 17.000000)">
                                <path d="M21.7353058,13.9047546 C21.2683563,13.2117157 20.5229492,12.7739715 19.690094,12.7038117 C18.8574066,12.6336517 18.0492249,12.9406433 17.4730072,13.5460663 L14.7112579,16.4472962 C14.2773743,15.1795502 13.0740814,14.265625 11.6611481,14.265625 L9.32824707,14.265625 C8.59492494,13.4425049 7.5614929,12.9765625 6.4453125,12.9765625 C5.3705902,12.9765625 4.33547976,13.429245 3.60551452,14.2186279 C2.8089142,15.0801849 1.83003236,15.5546875 0.849472035,15.5546875 L0,15.5546875 L0,22 L15.8380127,22 L22,14.2976837 L21.7353058,13.9047546 Z M15.2184906,20.7109375 L1.2890625,20.7109375 L1.2890625,16.8215942 C2.47792054,16.7015839 3.6226349,16.0988464 4.55200195,15.0937805 C5.03875732,14.5674134 5.72877504,14.265625 6.4453125,14.265625 C7.26390075,14.265625 8.01585387,14.6416016 8.50831605,15.2972107 L8.70167543,15.5546875 L11.6611481,15.5546875 C12.5013885,15.5546875 13.2182617,16.0934753 13.4842987,16.84375 L9.0234375,16.84375 L9.0234375,18.1328125 L14.8866577,18.1328125 L18.4067383,14.4348145 C18.7120514,14.1138916 19.140564,13.9510803 19.5820007,13.9883423 C19.868515,14.0123444 20.1352234,14.1185913 20.3551025,14.2902985 L15.2184906,20.7109375 Z" id="Shape"></path>
                                <path d="M12.890625,12.9765625 C15.0229492,12.9765625 16.7578125,11.2416992 16.7578125,9.109375 C16.7578125,6.97705078 15.0229492,5.2421875 12.890625,5.2421875 C10.7583008,5.2421875 9.0234375,6.97705078 9.0234375,9.109375 C9.0234375,11.2416992 10.7583008,12.9765625 12.890625,12.9765625 Z M12.890625,6.53125 C14.3121185,6.53125 15.46875,7.6877136 15.46875,9.109375 C15.46875,10.5308685 14.3121185,11.6875 12.890625,11.6875 C11.4689636,11.6875 10.3125,10.5308685 10.3125,9.109375 C10.3125,7.6877136 11.4689636,6.53125 12.890625,6.53125 Z" id="Shape"></path>
                                <path d="M18.046875,6.53125 C19.4683685,6.53125 20.625,5.37461852 20.625,3.953125 C20.625,2.5314636 19.4683685,1.375 18.046875,1.375 C16.6252136,1.375 15.46875,2.5314636 15.46875,3.953125 C15.46875,5.37461852 16.6252136,6.53125 18.046875,6.53125 Z M18.046875,2.6640625 C18.7577057,2.6640625 19.3359375,3.2422943 19.3359375,3.953125 C19.3359375,4.6639557 18.7577057,5.2421875 18.046875,5.2421875 C17.3360443,5.2421875 16.7578125,4.6639557 16.7578125,3.953125 C16.7578125,3.2422943 17.3360443,2.6640625 18.046875,2.6640625 Z" id="Shape"></path>
                                <path d="M12.2460938,3.8671875 C13.3122559,3.8671875 14.1796875,2.99975586 14.1796875,1.93359375 C14.1796875,0.867431641 13.3122559,0 12.2460938,0 C11.1799316,0 10.3125,0.867431641 10.3125,1.93359375 C10.3125,2.99975586 11.1799316,3.8671875 12.2460938,3.8671875 Z M12.2460938,1.2890625 C12.6014252,1.2890625 12.890625,1.57826234 12.890625,1.93359375 C12.890625,2.28892516 12.6014252,2.578125 12.2460938,2.578125 C11.8905945,2.578125 11.6015625,2.28892516 11.6015625,1.93359375 C11.6015625,1.57826234 11.8905945,1.2890625 12.2460938,1.2890625 Z" id="Shape"></path>
                                <polygon id="Path" points="12.2460938 7.8203125 13.5351562 7.8203125 13.5351562 10.3984375 12.2460938 10.3984375"></polygon>
                            </g>
                        </g>
                    </g>
                </g>
            </g>
        </g>
    </g>
</svg>