<?xml version="1.0" encoding="UTF-8"?>
<svg width="22px" height="22px" viewBox="0 0 22 22" version="1.1" xmlns="http://www.w3.org/2000/svg" xmlns:xlink="http://www.w3.org/1999/xlink">
    <!-- Generator: Sketch 51.3 (57544) - http://www.bohemiancoding.com/sketch -->
    <title>Policies</title>
    <desc>Created with Sketch.</desc>
    <defs></defs>
    <g id="Policies" stroke="none" stroke-width="1" fill="none" fill-rule="evenodd">
        <g id="settings-3" transform="translate(0.000000, 2.000000)" fill="#636D7F" fill-rule="nonzero">
            <path d="M0.859375,4.94140625 L13.9272461,4.94140625 C14.3230286,6.78100586 15.9618835,8.1640625 17.9179688,8.1640625 C20.1687927,8.1640625 22,6.3328552 22,4.08203125 C22,1.8312073 20.1687927,0 17.9179688,0 C15.9618835,0 14.3230286,1.38305664 13.9272461,3.22265625 L0.859375,3.22265625 C0.38470459,3.22265625 0,3.60736084 0,4.08203125 C0,4.55670166 0.38470459,4.94140625 0.859375,4.94140625 Z M17.9179688,1.71875 C19.2211304,1.71875 20.28125,2.77886963 20.28125,4.08203125 C20.28125,5.38519287 19.2211304,6.4453125 17.9179688,6.4453125 C16.6148071,6.4453125 15.5546875,5.38519287 15.5546875,4.08203125 C15.5546875,2.77886963 16.6148071,1.71875 17.9179688,1.71875 Z M21.140625,12.6757812 L8.07275391,12.6757812 C7.67697141,10.8361816 6.03811648,9.453125 4.08203125,9.453125 C1.8312073,9.453125 0,11.2843323 0,13.5351562 C0,15.7859802 1.8312073,17.6171875 4.08203125,17.6171875 C6.03811648,17.6171875 7.67697141,16.2341309 8.07275391,14.3945312 L21.140625,14.3945312 C21.6152954,14.3945312 22,14.0098267 22,13.5351562 C22,13.0604858 21.6152954,12.6757812 21.140625,12.6757812 Z M4.08203125,15.8984375 C2.77886963,15.8984375 1.71875,14.8383179 1.71875,13.5351562 C1.71875,12.2319946 2.77886963,11.171875 4.08203125,11.171875 C5.38519287,11.171875 6.4453125,12.2319946 6.4453125,13.5351562 C6.4453125,14.8383179 5.38519287,15.8984375 4.08203125,15.8984375 Z" id="Shape"></path>
        </g>
    </g>
</svg>