<?xml version="1.0" encoding="UTF-8"?>
<svg width="22px" height="22px" viewBox="0 0 22 22" version="1.1" xmlns="http://www.w3.org/2000/svg" xmlns:xlink="http://www.w3.org/1999/xlink">
    <!-- Generator: Sketch 51.3 (57544) - http://www.bohemiancoding.com/sketch -->
    <title>Reccomend Actions</title>
    <desc>Created with Sketch.</desc>
    <defs></defs>
    <g id="Reccomend-Actions" stroke="none" stroke-width="1" fill="none" fill-rule="evenodd">
        <g id="verified" fill="#636D7F" fill-rule="nonzero">
            <path d="M16.0444136,7.26316357 L9.49219873,13.8153784 L6.53373389,10.8569136 C6.18289404,10.5060288 5.61404834,10.5060737 5.26316357,10.8569136 C4.91227881,11.2077534 4.91227881,11.7765991 5.26316357,12.1274839 L8.85691357,15.7212339 C9.0323335,15.8966538 9.26224365,15.9843862 9.49219873,15.9843862 C9.72215381,15.9843862 9.95206396,15.8966538 10.1274839,15.7212339 L17.3149839,8.53373389 C17.6658687,8.18289404 17.6658687,7.61404834 17.3149839,7.26316357 C16.964144,6.91227881 16.3952534,6.91227881 16.0444136,7.26316357 Z" id="Path"></path>
            <path d="M20.3046875,0 L2.6953125,0 C1.20911719,0 0,1.20911719 0,2.6953125 L0,20.3046875 C0,21.7908828 1.20911719,23 2.6953125,23 L20.3046875,23 C21.7908828,23 23,21.7908828 23,20.3046875 L23,2.6953125 C23,1.20911719 21.7908828,0 20.3046875,0 Z M21.203125,20.3046875 C21.203125,20.8000859 20.8000859,21.203125 20.3046875,21.203125 L2.6953125,21.203125 C2.19991406,21.203125 1.796875,20.8000859 1.796875,20.3046875 L1.796875,2.6953125 C1.796875,2.19991406 2.19991406,1.796875 2.6953125,1.796875 L20.3046875,1.796875 C20.8000859,1.796875 21.203125,2.19991406 21.203125,2.6953125 L21.203125,20.3046875 Z" id="Shape"></path>
        </g>
    </g>
</svg>