<?xml version="1.0" encoding="UTF-8"?>
<svg width="30px" height="30px" viewBox="0 0 30 30" version="1.1" xmlns="http://www.w3.org/2000/svg" xmlns:xlink="http://www.w3.org/1999/xlink">
    <!-- Generator: Sketch 51.3 (57544) - http://www.bohemiancoding.com/sketch -->
    <title>maps-and-flags</title>
    <desc>Created with Sketch.</desc>
    <defs></defs>
    <g id="Page-1" stroke="none" stroke-width="1" fill="none" fill-rule="evenodd">
        <g id="Recommended-Actions" transform="translate(-1320.000000, -185.000000)" fill="#2460C8" fill-rule="nonzero">
            <g id="Opened-Action" transform="translate(317.000000, 152.000000)">
                <g id="Ignore-Snooze-Resolve" transform="translate(817.000000, 26.000000)">
                    <g id="Group-9" transform="translate(186.000000, 7.000000)">
                        <g id="maps-and-flags">
                            <path d="M15,0 C6.70880859,0 0,6.70951172 0,15 C0,23.2911914 6.70951172,30 15,30 C23.2911914,30 30,23.2904883 30,15 C30,6.70880859 23.2904883,0 15,0 Z M15,28.0000195 C7.83181641,28.0000195 1.99998047,22.1682422 1.99998047,15 C1.99998047,7.83175781 7.83181641,1.99998047 15,1.99998047 C22.1681836,1.99998047 28.0000195,7.83181641 28.0000195,15 C28.0000195,22.1681836 22.1681836,28.0000195 15,28.0000195 Z" id="Shape"></path>
                            <path d="M22.940332,9.48802734 C22.5498047,9.0975 21.916582,9.0975 21.5261133,9.48802734 L12.6235547,18.3905859 L8.47394531,14.2410352 C8.08341797,13.8505078 7.45019531,13.8505078 7.05972656,14.2410352 C6.66919922,14.6315625 6.66919922,15.2647266 7.05972656,15.6552539 L11.9163867,20.5119141 C12.3068555,20.9023828 12.9402539,20.9022656 13.3306055,20.5119141 L22.940332,10.9021875 C23.3308594,10.5116602 23.3308594,9.87855469 22.940332,9.48802734 Z" id="Path"></path>
                        </g>
                    </g>
                </g>
            </g>
        </g>
    </g>
</svg>