<?xml version="1.0" encoding="UTF-8"?>
<svg width="22px" height="22px" viewBox="0 0 22 22" version="1.1" xmlns="http://www.w3.org/2000/svg" xmlns:xlink="http://www.w3.org/1999/xlink">
    <!-- Generator: Sketch 51.3 (57544) - http://www.bohemiancoding.com/sketch -->
    <title>slack</title>
    <desc>Created with Sketch.</desc>
    <defs></defs>
    <g id="Page-1" stroke="none" stroke-width="1" fill="none" fill-rule="evenodd">
        <g id="Settings" transform="translate(-342.000000, -410.000000)" fill="#2460C8" fill-rule="nonzero">
            <g id="Settings-Field" transform="translate(318.000000, 152.000000)">
                <g id="Group-12">
                    <g id="Settings-Menu" transform="translate(0.000000, 19.000000)">
                        <g id="Rectangle" transform="translate(0.000000, 222.000000)">
                            <g id="slack" transform="translate(24.000000, 17.000000)">
                                <path d="M9.35929282,14.5258047 L7.4825699,9.36340356 L12.6389762,7.48668063 L14.5156991,12.6490817 L9.35929282,14.5258047 Z M8.68102114,9.92469049 L9.92040849,13.3273534 L13.3230714,12.0937896 L12.0836841,8.69112671 L8.68102114,9.92469049 Z" id="Shape"></path>
                                <path d="M10.0666822,21.9974126 C9.18064701,21.9974126 8.38898746,21.4440046 8.08479289,20.6119228 L7.40069769,18.7235528 L5.17319183,19.530285 C4.08024952,19.927485 2.87220651,19.3634576 2.47517781,18.2703439 C2.07797779,17.1774016 2.64200522,15.9695299 3.73494757,15.5723299 L5.95662986,14.7654264 L4.72306608,11.3629348 L2.83469607,12.0468587 C2.60432346,12.131814 2.36093355,12.1753193 2.11548828,12.1754905 C1.08985928,12.1808002 0.209647611,11.4458346 0.0318581934,10.4356209 C-0.14593118,9.42540716 0.430428458,8.43420558 1.39645176,8.08890363 L3.28482178,7.40497969 L2.47808957,5.18329741 C2.08088955,4.09035505 2.64491698,2.88231209 3.73785933,2.48511207 C4.83097292,2.08808336 6.03884461,2.65211079 6.43604463,3.7450531 L7.24277688,5.96091187 L10.6454398,4.72734809 L9.96134459,2.8448016 C9.56260306,1.75168801 10.1254315,0.542446076 11.2183738,0.143704542 C12.3113162,-0.255036993 13.5205581,0.307791457 13.9194709,1.40073377 L14.6033949,3.28910383 L16.8309007,2.48220031 C17.9238431,2.0851716 19.131886,2.64919903 19.529086,3.74214134 C19.9261148,4.83508365 19.3620873,6.04312662 18.269145,6.44032664 L16.0474627,7.24705889 L17.28685,10.6497218 L19.17522,9.9656266 C20.2683337,9.56842658 21.4762053,10.1326253 21.8734053,11.2255676 C22.2706054,12.3185099 21.7064066,13.5265529 20.6134643,13.9235817 L18.7192707,14.6076769 L19.526003,16.8233644 C19.923203,17.916478 19.3591755,19.1243497 18.2662332,19.5215497 C17.1732909,19.9187497 15.9652479,19.354551 15.5680479,18.2616086 L14.7613157,16.0459211 L11.3586527,17.2794849 L12.042748,19.1620314 C12.2820272,19.8082736 12.1897068,20.5307357 11.7957612,21.0961334 C11.4016442,21.6615311 10.7557446,21.998269 10.0666822,21.9974126 Z M7.96198462,17.5309251 L8.96757379,20.2902576 C9.18869722,20.8974478 9.86011767,21.2102064 10.4671366,20.9889117 C11.0741555,20.7677882 11.3869141,20.0963678 11.1657907,19.4893489 L10.1602015,16.7240215 L15.3166078,14.8472986 L16.4450052,17.9401147 C16.6661287,18.5471336 17.3375491,18.8598922 17.944568,18.6387688 C18.5515869,18.4176454 18.8645168,17.7462249 18.6432221,17.139206 L17.5208195,14.0405664 L20.2803233,13.0291537 C20.6843745,12.895726 20.9842871,12.5533358 21.0629049,12.134897 C21.1416941,11.7166295 20.9868563,11.2885989 20.6586824,11.0174615 C20.3306798,10.7463241 19.8810679,10.6749001 19.4852381,10.8309368 L16.7197395,11.836526 L14.8431879,6.67412486 L17.9474798,5.54572738 C18.4645763,5.34190334 18.7667155,4.80236907 18.6704557,4.25512713 C18.5740247,3.70771393 18.1055719,3.30383395 17.5499372,3.28910383 C17.4144542,3.28893251 17.2798275,3.31274055 17.1523947,3.35915763 L14.0421079,4.48173155 L13.0365188,1.72222773 C12.8153953,1.11520883 12.1439749,0.802450199 11.536956,1.02357363 C10.9299371,1.24469706 10.6171785,1.91611751 10.8383019,2.52313641 L11.8380675,5.28264019 L6.68166117,7.15936315 L5.55326378,4.06654706 C5.41983608,3.66249581 5.07727463,3.36258325 4.65900707,3.28396538 C4.24073955,3.20534752 3.812709,3.36001403 3.5415716,3.6881879 C3.27043424,4.01619051 3.19901014,4.46580241 3.3550469,4.86180345 L4.47744949,7.96027184 L1.71794572,8.97168452 C1.11092682,9.19297922 0.798168192,9.86439968 1.01929162,10.4714186 C1.24058632,11.0784375 1.91200678,11.3911961 2.51902567,11.1699014 L5.28435301,10.1644835 L7.16090467,15.3267134 L4.05661276,16.4551108 C3.52324455,16.648658 3.20586137,17.1972702 3.30383395,17.7561592 C3.40163525,18.3148769 3.88670228,18.7228676 4.45415532,18.7235528 C4.58963838,18.7235528 4.72426506,18.699916 4.85169792,18.6533277 L7.96198462,17.5309251 Z" id="Shape"></path>
                            </g>
                        </g>
                    </g>
                </g>
            </g>
        </g>
    </g>
</svg>