<?xml version="1.0" encoding="UTF-8"?>
<svg width="30px" height="30px" viewBox="0 0 30 30" version="1.1" xmlns="http://www.w3.org/2000/svg" xmlns:xlink="http://www.w3.org/1999/xlink">
    <!-- Generator: Sketch 51.3 (57544) - http://www.bohemiancoding.com/sketch -->
    <title>Group 8</title>
    <desc>Created with Sketch.</desc>
    <defs></defs>
    <g id="Page-1" stroke="none" stroke-width="1" fill="none" fill-rule="evenodd">
        <g id="Recommended-Actions" transform="translate(-1266.000000, -161.000000)">
            <g id="Opened-Action" transform="translate(302.000000, 132.000000)">
                <g id="Group-8" transform="translate(964.000000, 29.000000)">
                    <circle id="Oval" fill="#2460C8" cx="15" cy="15" r="15"></circle>
                    <g id="Group-3" fill-rule="nonzero">
                        <g id="Group-7">
                            <path d="M20.0647553,15.4704492 L14.7651449,15.4704492 L14.7651449,7.87673696 C14.7651449,7.39257185 14.3464302,7 13.8299002,7 C13.3133703,7 12.8946555,7.39252048 12.8946555,7.87673696 L12.8946555,15.4704492 L11.9352447,15.4704492 C11.4187696,15.4704492 11,15.8629697 11,16.3471862 C11,16.8314027 11.4187148,17.2239232 11.9352447,17.2239232 L12.8946555,17.2239232 L12.8946555,18.123263 C12.8946555,18.6074281 13.3133703,19 13.8299002,19 C14.3464302,19 14.7651449,18.6074795 14.7651449,18.123263 L14.7651449,17.2239232 L20.0647553,17.2239232 C20.5812304,17.2239232 21,16.8314027 21,16.3471862 C21,15.8629697 20.5812304,15.4704492 20.0647553,15.4704492 Z" id="Combined-Shape" fill="#FFFFFF"></path>
                            <path d="M15,0 C6.70880859,0 0,6.70951172 0,15 C0,23.2911914 6.70951172,30 15,30 C23.2911914,30 30,23.2904883 30,15 C30,6.70880859 23.2904883,0 15,0 Z M15,28.0000195 C7.83181641,28.0000195 1.99998047,22.1682422 1.99998047,15 C1.99998047,7.83175781 7.83181641,1.99998047 15,1.99998047 C22.1681836,1.99998047 28.0000195,7.83181641 28.0000195,15 C28.0000195,22.1681836 22.1681836,28.0000195 15,28.0000195 Z" id="Shape" fill="#2460C8"></path>
                        </g>
                    </g>
                </g>
            </g>
        </g>
    </g>
</svg>