<?xml version="1.0" encoding="UTF-8"?>
<svg width="30px" height="30px" viewBox="0 0 30 30" fill="#2460C8" version="1.1" xmlns="http://www.w3.org/2000/svg" xmlns:xlink="http://www.w3.org/1999/xlink">
    <title>circular-clock</title>
    <defs></defs>
    <g id="Page-1" stroke="none" stroke-width="1" fill="#2460C8">
        <g vid="Recommended-Actions" transform="translate(-1313.000000, -936.000000)" fill="#2460C8">
            <g id="Resolved-Actions" transform="translate(337.000000, 910.000000)" fill="#2460C8">
                <g id="Ignore-Snooze-Resolve" transform="translate(788.000000, 26.000000)" fill="#2460C8">
                    <g id="circular-clock" transform="translate(187.000000, 0.000000)" fill="#2460C8">
                        <path d="M21.6666797,15.9999805 L16.0000195,15.9999805 L16.0000195,7.33847656 C16.0000195,6.78623047 15.5523047,6.33845703 15,6.33845703 C14.4476953,6.33845703 13.9999805,6.78617188 13.9999805,7.33847656 L13.9999805,15.9999805 L12.9741211,15.9999805 C12.421875,15.9999805 11.9741016,16.4476953 11.9741016,17 C11.9741016,17.5523047 12.4218164,18.0000195 12.9741211,18.0000195 L13.9999805,18.0000195 L13.9999805,19.0258203 C13.9999805,19.5780664 14.4476953,20.0258398 15,20.0258398 C15.5523047,20.0258398 16.0000195,19.578125 16.0000195,19.0258203 L16.0000195,18.0000195 L21.6666797,18.0000195 C22.2189258,18.0000195 22.6666992,17.5523047 22.6666992,17 C22.6666992,16.4476953 22.2189258,15.9999805 21.6666797,15.9999805 Z" id="Combined-Shape"></path>
                        <path d="M16,0 C7.70880859,0 1,6.70951172 1,15 C1,23.2911914 7.70951172,30 16,30 C24.2911914,30 31,23.2904883 31,15 C31,6.70880859 24.2904883,0 16,0 Z M16,28.0000195 C8.83181641,28.0000195 2.99998047,22.1682422 2.99998047,15 C2.99998047,7.83175781 8.83181641,1.99998047 16,1.99998047 C23.1681836,1.99998047 29.0000195,7.83181641 29.0000195,15 C29.0000195,22.1681836 23.1681836,28.0000195 16,28.0000195 Z" id="Shape"></path>
                    </g>
                </g>
            </g>
        </g>
    </g>
</svg>