<?xml version="1.0" encoding="UTF-8"?>
<svg width="40px" height="40px" viewBox="0 0 40 40" version="1.1" xmlns="http://www.w3.org/2000/svg" xmlns:xlink="http://www.w3.org/1999/xlink">
    <!-- Generator: Sketch 51.3 (57544) - http://www.bohemiancoding.com/sketch -->
    <title>Group 7</title>
    <desc>Created with Sketch.</desc>
    <defs></defs>
    <g id="Page-1" stroke="none" stroke-width="1" fill="none" fill-rule="evenodd">
        <g id="Recommended-Actions" transform="translate(-1230.000000, -178.000000)">
            <g id="Opened-Action" transform="translate(317.000000, 153.000000)">
                <g id="Ignore-Snooze-Resolve" transform="translate(817.000000, 25.000000)">
                    <g id="Group-7" transform="translate(96.000000, 0.000000)">
                        <circle id="Oval" fill="#2460C8" cx="20" cy="20" r="20"></circle>
                        <path d="M26.6666797,18.9999805 L21.0000195,18.9999805 L21.0000195,10.3384766 C21.0000195,9.78623047 20.5523047,9.33845703 20,9.33845703 C19.4476953,9.33845703 18.9999805,9.78617188 18.9999805,10.3384766 L18.9999805,18.9999805 L17.9741211,18.9999805 C17.421875,18.9999805 16.9741016,19.4476953 16.9741016,20 C16.9741016,20.5523047 17.4218164,21.0000195 17.9741211,21.0000195 L18.9999805,21.0000195 L18.9999805,22.0258203 C18.9999805,22.5780664 19.4476953,23.0258398 20,23.0258398 C20.5523047,23.0258398 21.0000195,22.578125 21.0000195,22.0258203 L21.0000195,21.0000195 L26.6666797,21.0000195 C27.2189258,21.0000195 27.6666992,20.5523047 27.6666992,20 C27.6666992,19.4476953 27.2189258,18.9999805 26.6666797,18.9999805 Z" id="Combined-Shape" fill="#FFFFFF" fill-rule="nonzero"></path>
                    </g>
                </g>
            </g>
        </g>
    </g>
</svg>